<svg width="80" height="36" viewBox="0 0 124 61" fill="none" xmlns="http://www.w3.org/2000/svg">
<rect x="4.5" y="5.5" width="115" height="50" rx="15.5" fill="white"/>
<path d="M19.668 41.116C19.452 40.948 19.344 40.696 19.344 40.36C19.344 40.024 19.464 39.688 19.704 39.352C19.92 38.992 20.328 38.728 20.928 38.56C21.24 38.464 21.648 38.416 22.152 38.416C22.992 38.416 24.048 38.536 25.32 38.776C26.616 39.016 28.224 39.268 30.144 39.532C30.576 39.58 31.02 39.628 31.476 39.676C31.932 39.724 32.412 39.748 32.916 39.748C33.228 39.748 33.54 39.736 33.852 39.712C34.164 39.688 34.476 39.652 34.788 39.604C35.628 39.46 36.624 39.172 37.776 38.74C38.928 38.308 40.08 37.66 41.232 36.796C42.384 35.908 43.404 34.756 44.292 33.34C45.204 31.9 45.828 30.112 46.164 27.976C46.212 27.64 46.248 27.328 46.272 27.04C46.296 26.728 46.308 26.428 46.308 26.14C46.308 24.052 45.66 22.468 44.364 21.388C43.452 22.228 42.552 23.2 41.664 24.304C40.8 25.384 39.948 26.512 39.108 27.688C38.292 28.84 37.512 29.944 36.768 31C36.192 31.792 35.592 32.632 34.968 33.52C34.344 34.408 33.696 35.248 33.024 36.04C32.352 36.808 31.656 37.444 30.936 37.948C30.216 38.428 29.484 38.692 28.74 38.74C29.316 38.332 29.904 37.768 30.504 37.048C31.104 36.304 31.704 35.488 32.304 34.6C32.904 33.712 33.48 32.824 34.032 31.936C34.608 31.048 35.148 30.256 35.652 29.56C36.78 27.928 38.016 26.344 39.36 24.808C40.728 23.248 42.108 21.916 43.5 20.812C42.372 20.188 40.944 19.876 39.216 19.876C37.608 19.876 36.072 20.128 34.608 20.632C33.168 21.112 31.848 21.748 30.648 22.54C29.448 23.332 28.416 24.22 27.552 25.204C26.688 26.164 26.016 27.124 25.536 28.084C25.056 29.044 24.816 29.932 24.816 30.748C24.816 31.516 25.056 32.164 25.536 32.692C26.04 33.22 26.832 33.532 27.912 33.628C28.08 33.628 28.164 33.664 28.164 33.736C28.164 33.832 28.056 33.88 27.84 33.88C26.424 33.76 25.38 33.352 24.708 32.656C24.036 31.96 23.7 31.108 23.7 30.1C23.7 29.02 24.048 27.868 24.744 26.644C25.464 25.42 26.496 24.256 27.84 23.152C29.184 22.048 30.804 21.148 32.7 20.452C34.596 19.756 36.732 19.408 39.108 19.408C40.068 19.432 40.968 19.516 41.808 19.66C42.672 19.78 43.464 19.996 44.184 20.308C45.072 19.684 45.936 19.192 46.776 18.832C47.616 18.472 48.42 18.292 49.188 18.292C49.62 18.292 50.052 18.364 50.484 18.508C50.916 18.628 51.276 18.844 51.564 19.156C51.876 19.468 52.032 19.924 52.032 20.524C51.888 20.044 51.552 19.66 51.024 19.372C50.496 19.06 49.944 18.904 49.368 18.904C48.672 18.904 47.964 19.072 47.244 19.408C46.524 19.744 45.816 20.2 45.12 20.776C46.104 21.352 46.872 22.132 47.424 23.116C48 24.1 48.288 25.336 48.288 26.824C48.288 28.36 47.988 29.824 47.388 31.216C46.812 32.608 46.044 33.856 45.084 34.96C44.148 36.064 43.14 36.988 42.06 37.732C41.004 38.476 40.008 38.98 39.072 39.244C38.136 39.532 37.188 39.772 36.228 39.964C35.268 40.156 34.284 40.252 33.276 40.252C32.316 40.252 31.236 40.18 30.036 40.036C28.86 39.916 27.66 39.808 26.436 39.712C26.148 39.688 25.86 39.676 25.572 39.676C25.284 39.652 24.972 39.64 24.636 39.64C23.604 39.64 22.608 39.748 21.648 39.964C20.712 40.156 20.052 40.54 19.668 41.116ZM50.068 40.252C48.964 40.252 48.184 40.012 47.728 39.532C47.272 39.052 47.044 38.404 47.044 37.588C47.044 36.796 47.26 35.968 47.692 35.104C48.148 34.216 48.712 33.376 49.384 32.584C49.792 32.104 50.296 31.6 50.896 31.072C51.496 30.544 52.144 30.052 52.84 29.596C53.536 29.116 54.22 28.732 54.892 28.444C55.588 28.132 56.2 27.976 56.728 27.976C57.016 27.976 57.28 28.048 57.52 28.192C57.76 28.312 57.88 28.588 57.88 29.02C57.88 29.62 57.592 30.196 57.016 30.748C56.44 31.276 55.792 31.768 55.072 32.224C54.256 32.752 53.404 33.196 52.516 33.556C51.628 33.916 50.86 34.192 50.212 34.384C49.852 34.96 49.564 35.548 49.348 36.148C49.132 36.748 49.024 37.336 49.024 37.912C49.024 38.536 49.168 38.968 49.456 39.208C49.768 39.424 50.128 39.532 50.536 39.532C51.28 39.532 51.952 39.364 52.552 39.028C53.176 38.668 53.752 38.212 54.28 37.66C54.808 37.108 55.312 36.556 55.792 36.004C55.888 36.004 55.936 36.076 55.936 36.22C55.936 36.436 55.888 36.604 55.792 36.724C55.312 37.276 54.784 37.828 54.208 38.38C53.656 38.932 53.044 39.388 52.372 39.748C51.7 40.084 50.932 40.252 50.068 40.252ZM50.644 33.88C51.268 33.664 52 33.364 52.84 32.98C53.704 32.596 54.46 32.176 55.108 31.72C55.252 31.624 55.504 31.432 55.864 31.144C56.224 30.832 56.56 30.496 56.872 30.136C57.184 29.752 57.34 29.416 57.34 29.128C57.34 28.744 57.148 28.552 56.764 28.552C56.356 28.552 55.888 28.732 55.36 29.092C54.856 29.452 54.448 29.764 54.136 30.028C53.56 30.556 52.96 31.144 52.336 31.792C51.712 32.44 51.148 33.136 50.644 33.88ZM57.6047 40.108C57.1727 40.108 56.9567 39.916 56.9567 39.532C56.9567 39.148 57.1367 38.8 57.4967 38.488C57.8807 38.176 58.2647 38.02 58.6487 38.02C59.0807 38.02 59.2967 38.224 59.2967 38.632C59.2967 39.016 59.1167 39.364 58.7567 39.676C58.3967 39.964 58.0127 40.108 57.6047 40.108ZM65.4333 40.072C64.8333 40.072 64.4013 39.916 64.1373 39.604C63.8973 39.292 63.7773 38.908 63.7773 38.452C63.7773 38.164 63.8133 37.876 63.8853 37.588C64.0293 36.868 64.3893 36.112 64.9653 35.32C65.5413 34.528 66.2253 33.736 67.0173 32.944C67.8093 32.152 68.6133 31.432 69.4293 30.784C70.2693 30.136 71.0133 29.596 71.6613 29.164C71.3733 29.212 71.0013 29.236 70.5453 29.236C70.0173 29.236 69.4653 29.212 68.8893 29.164C68.3133 29.092 67.9173 28.984 67.7013 28.84C67.6053 29.008 67.3653 29.332 66.9813 29.812C66.6213 30.268 66.1653 30.82 65.6133 31.468C65.0853 32.116 64.5333 32.776 63.9573 33.448C63.3813 34.12 62.8413 34.756 62.3373 35.356C61.8333 35.932 61.4253 36.388 61.1133 36.724C60.8013 37.084 60.3813 37.516 59.8533 38.02C59.3013 38.5 58.7613 38.932 58.2333 39.316C57.6813 39.7 57.2253 39.892 56.8653 39.892C56.6973 39.892 56.6013 39.856 56.5773 39.784C56.5293 39.712 56.5053 39.664 56.5053 39.64C56.8893 39.64 57.4653 39.376 58.2333 38.848C58.9773 38.296 59.9373 37.348 61.1133 36.004C62.5293 34.372 63.8613 32.62 65.1093 30.748C66.3813 28.852 67.5213 26.884 68.5293 24.844H68.5653C68.8773 24.844 69.0333 25.144 69.0333 25.744C69.0333 26.296 68.8413 26.944 68.4573 27.688C68.3613 27.856 68.2173 28.084 68.0253 28.372C68.5053 28.468 68.9853 28.54 69.4653 28.588C69.9453 28.612 70.3893 28.624 70.7973 28.624C71.1333 28.624 71.4453 28.612 71.7333 28.588C72.0213 28.564 72.2493 28.528 72.4173 28.48C72.6333 28.48 72.7413 28.528 72.7413 28.624C72.7653 28.696 72.7533 28.756 72.7053 28.804C72.6093 28.9 72.4053 29.116 72.0933 29.452C71.8053 29.788 71.4693 30.16 71.0853 30.568C70.7253 30.952 70.3893 31.324 70.0773 31.684C69.7653 32.02 69.5373 32.272 69.3933 32.44C68.6493 33.328 67.9053 34.3 67.1613 35.356C66.4413 36.412 65.9373 37.36 65.6493 38.2C65.5533 38.416 65.5053 38.62 65.5053 38.812C65.5053 39.148 65.6613 39.316 65.9733 39.316C66.3093 39.316 66.7293 39.124 67.2333 38.74C67.7373 38.332 68.2413 37.864 68.7453 37.336C69.2733 36.808 69.6933 36.364 70.0053 36.004C70.1013 36.004 70.1493 36.076 70.1493 36.22C70.1493 36.436 70.1013 36.604 70.0053 36.724C68.9013 38.02 68.0013 38.908 67.3053 39.388C66.6333 39.844 66.0093 40.072 65.4333 40.072ZM72.7438 40.252C71.6398 40.252 70.8598 40.012 70.4038 39.532C69.9478 39.052 69.7198 38.404 69.7198 37.588C69.7198 36.796 69.9358 35.968 70.3678 35.104C70.8238 34.216 71.3878 33.376 72.0598 32.584C72.4678 32.104 72.9718 31.6 73.5718 31.072C74.1718 30.544 74.8198 30.052 75.5158 29.596C76.2118 29.116 76.8958 28.732 77.5678 28.444C78.2638 28.132 78.8758 27.976 79.4038 27.976C79.6918 27.976 79.9558 28.048 80.1958 28.192C80.4358 28.312 80.5558 28.588 80.5558 29.02C80.5558 29.62 80.2678 30.196 79.6918 30.748C79.1158 31.276 78.4678 31.768 77.7478 32.224C76.9318 32.752 76.0798 33.196 75.1918 33.556C74.3038 33.916 73.5358 34.192 72.8878 34.384C72.5278 34.96 72.2398 35.548 72.0238 36.148C71.8078 36.748 71.6998 37.336 71.6998 37.912C71.6998 38.536 71.8438 38.968 72.1318 39.208C72.4438 39.424 72.8038 39.532 73.2118 39.532C73.9558 39.532 74.6278 39.364 75.2278 39.028C75.8518 38.668 76.4278 38.212 76.9558 37.66C77.4838 37.108 77.9878 36.556 78.4678 36.004C78.5638 36.004 78.6118 36.076 78.6118 36.22C78.6118 36.436 78.5638 36.604 78.4678 36.724C77.9878 37.276 77.4598 37.828 76.8838 38.38C76.3318 38.932 75.7198 39.388 75.0478 39.748C74.3758 40.084 73.6078 40.252 72.7438 40.252ZM73.3198 33.88C73.9438 33.664 74.6758 33.364 75.5158 32.98C76.3798 32.596 77.1358 32.176 77.7838 31.72C77.9278 31.624 78.1798 31.432 78.5398 31.144C78.8998 30.832 79.2358 30.496 79.5478 30.136C79.8598 29.752 80.0158 29.416 80.0158 29.128C80.0158 28.744 79.8238 28.552 79.4398 28.552C79.0318 28.552 78.5638 28.732 78.0358 29.092C77.5318 29.452 77.1238 29.764 76.8118 30.028C76.2358 30.556 75.6358 31.144 75.0118 31.792C74.3878 32.44 73.8238 33.136 73.3198 33.88ZM81.4685 40.252C80.9885 40.252 80.5205 40.204 80.0645 40.108C79.6325 40.012 79.2485 39.844 78.9125 39.604C78.6485 39.412 78.4325 39.148 78.2645 38.812C78.0725 38.476 77.9765 38.044 77.9765 37.516C77.9765 36.892 78.1325 36.412 78.4445 36.076C78.7325 35.74 79.0445 35.572 79.3805 35.572C79.6445 35.236 80.0045 34.768 80.4605 34.168C80.9165 33.544 81.4205 32.86 81.9725 32.116C82.5485 31.372 83.1365 30.628 83.7365 29.884C84.3365 29.116 84.9005 28.432 85.4285 27.832C85.7645 27.496 86.1125 27.136 86.4725 26.752C86.8565 26.368 87.2765 26.044 87.7325 25.78C88.2125 25.492 88.7165 25.348 89.2445 25.348C89.6525 25.348 89.9405 25.444 90.1085 25.636C90.3005 25.828 90.3965 26.056 90.3965 26.32C90.3965 26.464 90.3605 26.596 90.2885 26.716C90.0245 26.668 89.6525 26.716 89.1725 26.86C88.6925 26.98 88.1645 27.208 87.5885 27.544C86.9645 27.928 86.3285 28.408 85.6805 28.984C85.6565 29.272 85.6205 29.716 85.5725 30.316C85.5485 30.892 85.5125 31.552 85.4645 32.296C85.4165 33.016 85.3325 33.748 85.2125 34.492C85.1165 35.212 84.9845 35.848 84.8165 36.4C84.6965 36.784 84.5045 37.216 84.2405 37.696C83.9765 38.152 83.6165 38.584 83.1605 38.992C82.7285 39.376 82.1885 39.64 81.5405 39.784C82.4045 39.784 83.1245 39.652 83.7005 39.388C84.2765 39.124 84.7565 38.824 85.1405 38.488C85.5485 38.128 85.8725 37.84 86.1125 37.624C86.3045 37.432 86.5685 37.156 86.9045 36.796C87.2405 36.436 87.4805 36.172 87.6245 36.004C87.7205 36.004 87.7685 36.076 87.7685 36.22C87.7685 36.436 87.7205 36.604 87.6245 36.724C86.6165 37.804 85.7765 38.596 85.1045 39.1C84.5045 39.556 83.8925 39.856 83.2685 40C82.6445 40.168 82.0445 40.252 81.4685 40.252ZM80.2085 39.568C80.6165 39.568 80.9885 39.412 81.3245 39.1C81.6845 38.764 82.0085 38.38 82.2965 37.948C82.5845 37.492 82.8125 37.072 82.9805 36.688C83.2445 36.112 83.5205 35.38 83.8085 34.492C84.0965 33.604 84.3725 32.704 84.6365 31.792C84.9005 30.856 85.1165 30.052 85.2845 29.38C84.6125 30.028 83.9405 30.736 83.2685 31.504C82.6205 32.272 82.0205 33.004 81.4685 33.7C80.9165 34.396 80.4605 34.972 80.1005 35.428C79.7885 35.836 79.5485 36.268 79.3805 36.724C79.2125 37.18 79.1285 37.612 79.1285 38.02C79.1285 38.476 79.2245 38.848 79.4165 39.136C79.6085 39.424 79.8725 39.568 80.2085 39.568ZM88.4491 40.144C87.8491 40.144 87.4291 40 87.1891 39.712C86.9491 39.424 86.8291 39.052 86.8291 38.596C86.8291 37.804 87.1171 36.904 87.6931 35.896C88.0291 35.32 88.4851 34.66 89.0611 33.916C89.6611 33.148 90.3331 32.344 91.0771 31.504C91.8211 30.64 92.5651 29.8 93.3091 28.984H90.8971L91.2931 28.48H93.7771C94.4491 27.784 95.0731 27.136 95.6491 26.536C96.2491 25.912 96.7411 25.408 97.1251 25.024C98.1811 23.968 99.1531 23.164 100.041 22.612C100.953 22.06 101.673 21.784 102.201 21.784C101.817 22.12 101.253 22.648 100.509 23.368C99.7891 24.088 98.9851 24.892 98.0971 25.78C97.2331 26.668 96.3811 27.568 95.5411 28.48H98.0251L97.6291 28.984H95.1091C94.6531 29.512 94.2211 30.004 93.8131 30.46C93.4291 30.916 93.0931 31.348 92.8051 31.756C91.6771 33.292 90.7651 34.552 90.0691 35.536C89.3731 36.52 88.9171 37.264 88.7011 37.768C88.5331 38.176 88.4491 38.512 88.4491 38.776C88.4491 39.232 88.6651 39.46 89.0971 39.46C89.4571 39.46 89.8411 39.34 90.2491 39.1C90.8491 38.764 91.4491 38.284 92.0491 37.66C92.6731 37.012 93.1771 36.46 93.5611 36.004C93.6571 36.004 93.7051 36.076 93.7051 36.22C93.7051 36.436 93.6571 36.604 93.5611 36.724C92.6491 37.78 91.7971 38.62 91.0051 39.244C90.2131 39.844 89.3611 40.144 88.4491 40.144ZM94.9665 40.18C94.2705 40.18 93.7785 40.012 93.4905 39.676C93.1785 39.316 93.0225 38.872 93.0225 38.344C93.0225 37.672 93.2145 36.88 93.5985 35.968C94.0065 35.056 94.5465 34.132 95.2185 33.196C95.8905 32.26 96.6465 31.396 97.4865 30.604C98.3265 29.788 99.1785 29.14 100.043 28.66C100.931 28.156 101.783 27.904 102.599 27.904C103.199 27.904 103.631 28.06 103.895 28.372C104.159 28.684 104.291 29.092 104.291 29.596C104.291 30.268 104.099 31.072 103.715 32.008C103.331 32.92 102.803 33.856 102.131 34.816C101.483 35.752 100.751 36.628 99.9345 37.444C99.1425 38.26 98.3145 38.92 97.4505 39.424C96.5865 39.928 95.7585 40.18 94.9665 40.18ZM95.3985 39.496C95.9025 39.496 96.5025 39.244 97.1985 38.74C97.9185 38.212 98.6505 37.54 99.3945 36.724C100.139 35.908 100.823 35.044 101.447 34.132C102.095 33.196 102.611 32.32 102.995 31.504C103.403 30.664 103.607 29.98 103.607 29.452C103.607 28.876 103.331 28.588 102.779 28.588C102.323 28.588 101.747 28.864 101.051 29.416C100.379 29.944 99.6705 30.628 98.9265 31.468C98.2065 32.308 97.5225 33.196 96.8745 34.132C96.2265 35.068 95.6985 35.956 95.2905 36.796C94.9065 37.636 94.7145 38.296 94.7145 38.776C94.7145 39.256 94.9425 39.496 95.3985 39.496Z" fill="#272727"/>
<g clip-path="url(#clip0_1_19)">
<path d="M65.7857 17.25V16.75H65.2857H64.4286C63.6944 16.75 63.2143 16.2406 63.2143 15.75V13.125C63.2143 11.6122 63.8758 10.7217 64.57 10.1953C64.9243 9.92655 65.2927 9.74953 65.5958 9.64032C65.747 9.58586 65.8786 9.54945 65.98 9.52712C66.0307 9.51595 66.0719 9.50875 66.1025 9.5045C66.131 9.50054 66.1439 9.50006 66.1439 9.50001C66.1439 9.5 66.1435 9.5 66.1429 9.5C66.4056 9.5 66.5 9.67193 66.5 9.75V14.625V17.25V20.25C66.5 20.3281 66.4056 20.5 66.1429 20.5C65.8801 20.5 65.7857 20.3281 65.7857 20.25V17.25ZM55.5409 12.6106L56.217 9.94941V12.5203C56.217 12.9836 56.6235 13.25 56.9795 13.25C57.0947 13.25 57.2126 13.2233 57.3203 13.1721L57.1903 13.4375H57.992H58H58.008H58.8097L58.6789 13.1704C58.7875 13.2227 58.9067 13.25 59.0232 13.25C59.3792 13.25 59.7857 12.9836 59.7857 12.5203V9.95996L60.4591 12.6106C60.4591 12.6106 60.4591 12.6106 60.4591 12.6106C60.4865 12.7183 60.5 12.827 60.5 12.9352C60.5 13.6944 59.8198 14.4121 58.8173 14.4922L58.3571 14.529V14.9906V20.25C58.3571 20.3281 58.2628 20.5 58 20.5C57.7372 20.5 57.6429 20.3281 57.6429 20.25V14.9906V14.529L57.1827 14.4922C56.1802 14.4121 55.5 13.6944 55.5 12.9352C55.5 12.827 55.5135 12.7183 55.5409 12.6106C55.5409 12.6106 55.5409 12.6106 55.5409 12.6106ZM58 11.7844L57.7754 12.2429L58.0003 10.0786L58.2276 12.2491L58 11.7844Z" stroke="#272727"/>
</g>
<rect x="4.5" y="5.5" width="115" height="50" rx="15.5" stroke="black"/>
<rect x="0.5" y="0.5" width="123" height="60" rx="19.5" stroke="white"/>
<defs>
<clipPath id="clip0_1_19">
<rect width="12" height="12" fill="white" transform="translate(55 9)"/>
</clipPath>
</defs>
</svg>
